<?xml version="1.0" standalone="no"?>
<!DOCTYPE svg PUBLIC "-//W3C//DTD SVG 20010904//EN"
 "http://www.w3.org/TR/2001/REC-SVG-20010904/DTD/svg10.dtd">
<svg version="1.0" xmlns="http://www.w3.org/2000/svg"
 width="512.000000pt" height="512.000000pt" viewBox="0 0 512.000000 512.000000"
 preserveAspectRatio="xMidYMid meet">
<metadata>
Created by potrace 1.16, written by Peter Selinger 2001-2019
</metadata>
<g transform="translate(0.000000,512.000000) scale(0.100000,-0.100000)"
fill="#000000" stroke="none">
<path d="M2680 4795 l0 -155 307 -2 307 -3 197 -653 c108 -359 199 -655 201
-657 8 -8 259 218 255 229 -3 6 -98 323 -213 703 l-209 693 -422 0 -423 0 0
-155z"/>
<path d="M3935 3148 c-137 -121 -264 -233 -282 -248 l-32 -29 140 -477 141
-477 -204 -206 c-111 -113 -304 -308 -428 -433 l-225 -228 -987 0 c-971 0
-988 0 -1042 -21 -73 -27 -148 -96 -183 -167 -24 -50 -28 -69 -28 -147 0 -76
4 -99 26 -146 34 -72 96 -134 168 -168 l56 -26 1397 -3 1398 -2 -19 47 c-76
194 -63 450 32 638 108 213 299 373 524 437 62 18 105 22 206 23 l128 0 -6 25
c-10 40 -495 1762 -506 1798 -6 17 -14 32 -17 32 -4 -1 -119 -100 -257 -222z"/>
<path d="M0 2055 l0 -155 269 0 c299 0 379 -10 513 -61 99 -39 215 -114 301
-198 70 -67 162 -195 191 -263 l15 -38 165 0 c113 0 166 3 166 11 0 6 -14 45
-30 86 -134 334 -422 605 -757 713 -161 52 -237 60 -549 60 l-284 0 0 -155z"/>
<path d="M396 1224 c-171 -41 -324 -184 -376 -352 -29 -95 -28 -245 4 -334 74
-210 276 -351 501 -351 71 0 205 27 205 40 0 3 -24 32 -54 64 -100 108 -153
234 -163 389 -10 162 51 334 161 456 l56 62 -28 11 c-83 33 -206 39 -306 15z"/>
<path d="M4474 1215 c-332 -72 -511 -485 -335 -775 102 -170 267 -264 461
-264 148 0 267 50 370 155 102 103 150 224 150 375 0 113 -23 194 -80 281
-124 188 -343 277 -566 228z"/>
</g>
</svg>
